<svg width="1200" height="600" xmlns="http://www.w3.org/2000/svg">
  <defs>
    <linearGradient id="grad1" x1="0%" y1="0%" x2="100%" y2="0%">
      <stop offset="0%" style="stop-color:#3498db;stop-opacity:1" />
      <stop offset="100%" style="stop-color:#2c3e50;stop-opacity:1" />
    </linearGradient>
  </defs>
  <rect width="1200" height="600" fill="url(#grad1)"/>
  <g transform="translate(600, 300)">
    <!-- Road -->
    <rect x="-500" y="-50" width="1000" height="100" fill="#333" rx="5" ry="5"/>
    <line x1="-450" y1="0" x2="-350" y2="0" stroke="#fff" stroke-width="10" stroke-dasharray="50,50"/>
    <line x1="-250" y1="0" x2="-150" y2="0" stroke="#fff" stroke-width="10" stroke-dasharray="50,50"/>
    <line x1="-50" y1="0" x2="50" y2="0" stroke="#fff" stroke-width="10" stroke-dasharray="50,50"/>
    <line x1="150" y1="0" x2="250" y2="0" stroke="#fff" stroke-width="10" stroke-dasharray="50,50"/>
    <line x1="350" y1="0" x2="450" y2="0" stroke="#fff" stroke-width="10" stroke-dasharray="50,50"/>
    
    <!-- Traffic lights -->
    <g transform="translate(-300, -150)">
      <rect x="-20" y="-60" width="40" height="120" fill="#222" rx="5" ry="5"/>
      <rect x="-30" y="-70" width="60" height="20" fill="#222" rx="5" ry="5"/>
      <circle cx="0" cy="-40" r="15" fill="#e74c3c"/>
      <circle cx="0" cy="0" r="15" fill="#f39c12"/>
      <circle cx="0" cy="40" r="15" fill="#2ecc71"/>
    </g>
    
    <g transform="translate(300, -150)">
      <rect x="-20" y="-60" width="40" height="120" fill="#222" rx="5" ry="5"/>
      <rect x="-30" y="-70" width="60" height="20" fill="#222" rx="5" ry="5"/>
      <circle cx="0" cy="-40" r="15" fill="#e74c3c"/>
      <circle cx="0" cy="0" r="15" fill="#f39c12"/>
      <circle cx="0" cy="40" r="15" fill="#2ecc71"/>
    </g>
    
    <!-- Cars -->
    <g transform="translate(-200, -20)">
      <rect x="-40" y="-15" width="80" height="30" fill="#e74c3c" rx="10" ry="10"/>
      <rect x="-30" y="-25" width="60" height="15" fill="#e74c3c" rx="5" ry="5"/>
      <circle cx="-25" cy="15" r="8" fill="#333"/>
      <circle cx="25" cy="15" r="8" fill="#333"/>
    </g>
    
    <g transform="translate(0, -20)">
      <rect x="-40" y="-15" width="80" height="30" fill="#3498db" rx="10" ry="10"/>
      <rect x="-30" y="-25" width="60" height="15" fill="#3498db" rx="5" ry="5"/>
      <circle cx="-25" cy="15" r="8" fill="#333"/>
      <circle cx="25" cy="15" r="8" fill="#333"/>
    </g>
    
    <g transform="translate(200, -20)">
      <rect x="-40" y="-15" width="80" height="30" fill="#2ecc71" rx="10" ry="10"/>
      <rect x="-30" y="-25" width="60" height="15" fill="#2ecc71" rx="5" ry="5"/>
      <circle cx="-25" cy="15" r="8" fill="#333"/>
      <circle cx="25" cy="15" r="8" fill="#333"/>
    </g>
    
    <!-- Buildings -->
    <g transform="translate(-400, -200)">
      <rect x="-50" y="-100" width="100" height="200" fill="#34495e"/>
      <rect x="-40" y="-90" width="20" height="20" fill="#ecf0f1"/>
      <rect x="-10" y="-90" width="20" height="20" fill="#ecf0f1"/>
      <rect x="20" y="-90" width="20" height="20" fill="#ecf0f1"/>
      <rect x="-40" y="-60" width="20" height="20" fill="#ecf0f1"/>
      <rect x="-10" y="-60" width="20" height="20" fill="#ecf0f1"/>
      <rect x="20" y="-60" width="20" height="20" fill="#ecf0f1"/>
      <rect x="-40" y="-30" width="20" height="20" fill="#ecf0f1"/>
      <rect x="-10" y="-30" width="20" height="20" fill="#ecf0f1"/>
      <rect x="20" y="-30" width="20" height="20" fill="#ecf0f1"/>
      <rect x="-40" y="0" width="20" height="20" fill="#ecf0f1"/>
      <rect x="-10" y="0" width="20" height="20" fill="#ecf0f1"/>
      <rect x="20" y="0" width="20" height="20" fill="#ecf0f1"/>
      <rect x="-40" y="30" width="20" height="20" fill="#ecf0f1"/>
      <rect x="-10" y="30" width="20" height="20" fill="#ecf0f1"/>
      <rect x="20" y="30" width="20" height="20" fill="#ecf0f1"/>
      <rect x="-40" y="60" width="20" height="20" fill="#ecf0f1"/>
      <rect x="-10" y="60" width="20" height="20" fill="#ecf0f1"/>
      <rect x="20" y="60" width="20" height="20" fill="#ecf0f1"/>
    </g>
    
    <g transform="translate(400, -200)">
      <rect x="-50" y="-100" width="100" height="200" fill="#34495e"/>
      <rect x="-40" y="-90" width="20" height="20" fill="#ecf0f1"/>
      <rect x="-10" y="-90" width="20" height="20" fill="#ecf0f1"/>
      <rect x="20" y="-90" width="20" height="20" fill="#ecf0f1"/>
      <rect x="-40" y="-60" width="20" height="20" fill="#ecf0f1"/>
      <rect x="-10" y="-60" width="20" height="20" fill="#ecf0f1"/>
      <rect x="20" y="-60" width="20" height="20" fill="#ecf0f1"/>
      <rect x="-40" y="-30" width="20" height="20" fill="#ecf0f1"/>
      <rect x="-10" y="-30" width="20" height="20" fill="#ecf0f1"/>
      <rect x="20" y="-30" width="20" height="20" fill="#ecf0f1"/>
      <rect x="-40" y="0" width="20" height="20" fill="#ecf0f1"/>
      <rect x="-10" y="0" width="20" height="20" fill="#ecf0f1"/>
      <rect x="20" y="0" width="20" height="20" fill="#ecf0f1"/>
      <rect x="-40" y="30" width="20" height="20" fill="#ecf0f1"/>
      <rect x="-10" y="30" width="20" height="20" fill="#ecf0f1"/>
      <rect x="20" y="30" width="20" height="20" fill="#ecf0f1"/>
      <rect x="-40" y="60" width="20" height="20" fill="#ecf0f1"/>
      <rect x="-10" y="60" width="20" height="20" fill="#ecf0f1"/>
      <rect x="20" y="60" width="20" height="20" fill="#ecf0f1"/>
    </g>
    
    <!-- Title -->
    <text x="0" y="-200" font-family="Arial" font-size="40" fill="#fff" text-anchor="middle" font-weight="bold">Prédiction de Flux de Trafic</text>
  </g>
</svg>
